<svg id="wave" style="transform:rotate(0deg); transition: 0.3s" viewBox="0 0 1440 310" version="1.1" xmlns="http://www.w3.org/2000/svg"><defs><linearGradient id="sw-gradient-0" x1="0" x2="0" y1="1" y2="0"><stop stop-color="rgba(36, 167, 255, 1)" offset="0%"></stop><stop stop-color="rgba(42, 70, 141, 1)" offset="100%"></stop></linearGradient></defs><path style="transform:translate(0, 0px); opacity:1" fill="url(#sw-gradient-0)" d="M0,0L80,20.7C160,41,320,83,480,113.7C640,145,800,165,960,149.8C1120,134,1280,83,1440,77.5C1600,72,1760,114,1920,149.8C2080,186,2240,217,2400,211.8C2560,207,2720,165,2880,160.2C3040,155,3200,186,3360,165.3C3520,145,3680,72,3840,62C4000,52,4160,103,4320,129.2C4480,155,4640,155,4800,139.5C4960,124,5120,93,5280,72.3C5440,52,5600,41,5760,46.5C5920,52,6080,72,6240,113.7C6400,155,6560,217,6720,222.2C6880,227,7040,176,7200,149.8C7360,124,7520,124,7680,124C7840,124,8000,124,8160,108.5C8320,93,8480,62,8640,67.2C8800,72,8960,114,9120,124C9280,134,9440,114,9600,98.2C9760,83,9920,72,10080,62C10240,52,10400,41,10560,56.8C10720,72,10880,114,11040,118.8C11200,124,11360,93,11440,77.5L11520,62L11520,310L11440,310C11360,310,11200,310,11040,310C10880,310,10720,310,10560,310C10400,310,10240,310,10080,310C9920,310,9760,310,9600,310C9440,310,9280,310,9120,310C8960,310,8800,310,8640,310C8480,310,8320,310,8160,310C8000,310,7840,310,7680,310C7520,310,7360,310,7200,310C7040,310,6880,310,6720,310C6560,310,6400,310,6240,310C6080,310,5920,310,5760,310C5600,310,5440,310,5280,310C5120,310,4960,310,4800,310C4640,310,4480,310,4320,310C4160,310,4000,310,3840,310C3680,310,3520,310,3360,310C3200,310,3040,310,2880,310C2720,310,2560,310,2400,310C2240,310,2080,310,1920,310C1760,310,1600,310,1440,310C1280,310,1120,310,960,310C800,310,640,310,480,310C320,310,160,310,80,310L0,310Z"></path></svg>